<svg xmlns="http://www.w3.org/2000/svg" width="36" height="36" id="ecommerce">
  <path fill="#34485c" d="M24 1021.362H9c-.554 0-1 .446-1 1v28c0 .554.446 1 1 1h15c.554 0 1-.446 1-1v-28c0-.554-.446-1-1-1z" color="#000" overflow="visible" style="isolation:auto;mix-blend-mode:normal" transform="translate(1 -1018.362)"></path>
  <path fill="#e9eded" d="M23 1024.362v22H10v-22z" color="#000" overflow="visible" style="isolation:auto;mix-blend-mode:normal" transform="translate(1 -1018.362)"></path>
  <path fill="#e9eded" d="M15.5 4h4v1h-4zm3.857 26.5a1.5 1.5 0 0 1-1.5 1.5 1.5 1.5 0 0 1-1.5-1.5 1.5 1.5 0 0 1 1.5-1.5 1.5 1.5 0 0 1 1.5 1.5z"></path>
  <path fill="none" d="M11.194 6h11.611"></path>
  <path fill="#f8b84e" d="M27 1030.316c0 .988-.78 1.783-1.75 1.783s-1.75-.795-1.75-1.783c0 .988-.78 1.783-1.75 1.783s-1.75-.795-1.75-1.783c0 .988-.78 1.783-1.75 1.783s-1.75-.795-1.75-1.783c0 .988-.78 1.783-1.75 1.783s-1.75-.795-1.75-1.783c0 .988-.78 1.783-1.75 1.783-.485 0-.922-.199-1.239-.521a1.795 1.795 0 0 1-.511-1.262c0 .494-.195.94-.511 1.262a1.728 1.728 0 0 1-1.239.521c-.97 0-1.75-.795-1.75-1.783v-.015c0-1.777.384-1.777 3.993-5.938H23c4.083 4.161 4 4.161 4 5.845" color="#000" overflow="visible" style="isolation:auto;mix-blend-mode:normal" transform="translate(1 -1018.362)"></path>
  <path fill="none" d="M8.028 9.765h17.944"></path>
  <path fill="#fcd062" d="M6.088 1029.362a4.21 4.21 0 0 0-.088.94v.014c0 .988.78 1.783 1.75 1.783.485 0 .922-.2 1.238-.522.317-.322.512-.767.512-1.261 0 .494.195.94.512 1.261.316.323.753.522 1.238.522.97 0 1.75-.795 1.75-1.783 0 .988.78 1.783 1.75 1.783s1.75-.795 1.75-1.783c0 .988.78 1.783 1.75 1.783s1.75-.795 1.75-1.783c0 .988.78 1.783 1.75 1.783s1.75-.795 1.75-1.783c0 .988.78 1.783 1.75 1.783s1.75-.795 1.75-1.783v-.108c0-.335-.004-.598-.031-.845H6.088z" color="#000" overflow="visible" style="isolation:auto;mix-blend-mode:normal" transform="translate(1 -1018.362)"></path>
  <path fill="#e9eded" d="M9 4c-1.09 0-2 .91-2 2v3.895c-1.063 1.203-1.68 1.95-1.889 2.886A5.259 5.259 0 0 0 5 13.94v.014c0 1.222.893 2.1 2 2.465V34c0 1.09.91 2 2 2h15c1.09 0 2-.91 2-2V16.56c1.145-.344 2-1.363 2-2.607v-.107c0-.342-.005-.638-.037-.944v-.01c-.057-.522-.267-1.066-.625-1.601-.298-.445-.782-.98-1.338-1.584V6c0-1.09-.91-2-2-2H9Zm0 1h15c.554 0 1 .446 1 1v4.072c1.471 1.561 1.89 2.196 1.969 2.928v.008c.026.245.031.506.031.838v.107c0 .865-.598 1.582-1.396 1.748a1.738 1.738 0 0 1-.354.035c-.086 0-.168-.013-.25-.025V34c0 .554-.446 1-1 1H9c-.554 0-1-.446-1-1V15.71c-.082.013-.164.026-.25.026-.97 0-1.75-.795-1.75-1.783v-.014c0-.371.026-.66.086-.931L6.088 13c.16-.719.65-1.322 1.912-2.742V6c0-.554.446-1 1-1Z" color="#000" font-family="sans-serif" font-weight="400" overflow="visible" style="line-height:normal;text-indent:0;text-align:start;text-decoration-line:none;text-decoration-style:solid;text-decoration-color:#000;text-transform:none;block-progression:tb;isolation:auto;mix-blend-mode:normal" transform="translate(1 -2)"></path>
</svg>
